<?xml version="1.0" encoding="UTF-8" standalone="no"?>
<!DOCTYPE svg PUBLIC "-//W3C//DTD SVG 1.1//EN"
 "http://www.w3.org/Graphics/SVG/1.1/DTD/svg11.dtd">
<!-- Generated by graphviz version 12.2.1 (20241206.2353)
 -->
<!-- Title: G Pages: 1 -->
<svg width="2181pt" height="1378pt"
 viewBox="0.00 0.00 2180.70 1378.22" xmlns="http://www.w3.org/2000/svg" xmlns:xlink="http://www.w3.org/1999/xlink">
<g id="graph0" class="graph" transform="scale(1 1) rotate(0) translate(21.6 1356.62)">
<title>G</title>
<polygon fill="#111111" stroke="none" points="-21.6,21.6 -21.6,-1356.62 2159.1,-1356.62 2159.1,21.6 -21.6,21.6"/>
<!-- advice.mjs -->
<g id="node1" class="node">
<title>advice.mjs</title>
<path fill="none" stroke="#cfffac" d="M1910.71,-1131.41C1910.71,-1131.41 1846.04,-1131.41 1846.04,-1131.41 1842.08,-1131.41 1838.12,-1127.45 1838.12,-1123.49 1838.12,-1123.49 1838.12,-1115.57 1838.12,-1115.57 1838.12,-1111.62 1842.08,-1107.66 1846.04,-1107.66 1846.04,-1107.66 1910.71,-1107.66 1910.71,-1107.66 1914.67,-1107.66 1918.62,-1111.62 1918.62,-1115.57 1918.62,-1115.57 1918.62,-1123.49 1918.62,-1123.49 1918.62,-1127.45 1914.67,-1131.41 1910.71,-1131.41"/>
<text text-anchor="middle" x="1878.38" y="-1114.11" font-family="Arial" font-size="14.00" fill="#cfffac">advice.mjs</text>
</g>
<!-- error.mjs -->
<g id="node2" class="node">
<title>error.mjs</title>
<path fill="none" stroke="#cfffac" d="M2096.21,-994.41C2096.21,-994.41 2042.79,-994.41 2042.79,-994.41 2038.83,-994.41 2034.88,-990.45 2034.88,-986.49 2034.88,-986.49 2034.88,-978.57 2034.88,-978.57 2034.88,-974.62 2038.83,-970.66 2042.79,-970.66 2042.79,-970.66 2096.21,-970.66 2096.21,-970.66 2100.17,-970.66 2104.12,-974.62 2104.12,-978.57 2104.12,-978.57 2104.12,-986.49 2104.12,-986.49 2104.12,-990.45 2100.17,-994.41 2096.21,-994.41"/>
<text text-anchor="middle" x="2069.5" y="-977.11" font-family="Arial" font-size="14.00" fill="#cfffac">error.mjs</text>
</g>
<!-- instrument.mjs -->
<g id="node3" class="node">
<title>instrument.mjs</title>
<path fill="none" stroke="#c6c5fe" d="M762.83,-1212.41C762.83,-1212.41 673.42,-1212.41 673.42,-1212.41 669.46,-1212.41 665.5,-1208.45 665.5,-1204.49 665.5,-1204.49 665.5,-1196.57 665.5,-1196.57 665.5,-1192.62 669.46,-1188.66 673.42,-1188.66 673.42,-1188.66 762.83,-1188.66 762.83,-1188.66 766.79,-1188.66 770.75,-1192.62 770.75,-1196.57 770.75,-1196.57 770.75,-1204.49 770.75,-1204.49 770.75,-1208.45 766.79,-1212.41 762.83,-1212.41"/>
<text text-anchor="middle" x="718.12" y="-1195.11" font-family="Arial" font-size="14.00" fill="#c6c5fe">instrument.mjs</text>
</g>
<!-- instrument/visit.mjs -->
<g id="node4" class="node">
<title>instrument/visit.mjs</title>
<path fill="none" stroke="#c6c5fe" d="M1327.58,-1169.41C1327.58,-1169.41 1211.17,-1169.41 1211.17,-1169.41 1207.21,-1169.41 1203.25,-1165.45 1203.25,-1161.49 1203.25,-1161.49 1203.25,-1153.57 1203.25,-1153.57 1203.25,-1149.62 1207.21,-1145.66 1211.17,-1145.66 1211.17,-1145.66 1327.58,-1145.66 1327.58,-1145.66 1331.54,-1145.66 1335.5,-1149.62 1335.5,-1153.57 1335.5,-1153.57 1335.5,-1161.49 1335.5,-1161.49 1335.5,-1165.45 1331.54,-1169.41 1327.58,-1169.41"/>
<text text-anchor="middle" x="1269.38" y="-1152.11" font-family="Arial" font-size="14.00" fill="#c6c5fe">instrument/visit.mjs</text>
</g>
<!-- instrument.mjs&#45;&gt;instrument/visit.mjs -->
<g id="edge1" class="edge">
<title>instrument.mjs&#45;&gt;instrument/visit.mjs</title>
<path fill="none" stroke="#757575" d="M770.8,-1196.49C867.87,-1188.89 1077.93,-1172.44 1191.6,-1163.54"/>
<polygon fill="#757575" stroke="#757575" points="1191.75,-1167.04 1201.45,-1162.77 1191.21,-1160.06 1191.75,-1167.04"/>
</g>
<!-- instrument/visit.mjs&#45;&gt;error.mjs -->
<g id="edge7" class="edge">
<title>instrument/visit.mjs&#45;&gt;error.mjs</title>
<path fill="none" stroke="#757575" d="M1335.9,-1163.51C1487.78,-1176.17 1859.02,-1199.92 1965.5,-1140.53 2018.43,-1111.01 2048.66,-1041.59 2061.35,-1005.4"/>
<polygon fill="#757575" stroke="#757575" points="2064.66,-1006.53 2064.51,-995.94 2058.02,-1004.31 2064.66,-1006.53"/>
</g>
<!-- instrument/advice.mjs -->
<g id="node5" class="node">
<title>instrument/advice.mjs</title>
<path fill="none" stroke="#c6c5fe" d="M1739.08,-1131.41C1739.08,-1131.41 1606.92,-1131.41 1606.92,-1131.41 1602.96,-1131.41 1599,-1127.45 1599,-1123.49 1599,-1123.49 1599,-1115.57 1599,-1115.57 1599,-1111.62 1602.96,-1107.66 1606.92,-1107.66 1606.92,-1107.66 1739.08,-1107.66 1739.08,-1107.66 1743.04,-1107.66 1747,-1111.62 1747,-1115.57 1747,-1115.57 1747,-1123.49 1747,-1123.49 1747,-1127.45 1743.04,-1131.41 1739.08,-1131.41"/>
<text text-anchor="middle" x="1673" y="-1114.11" font-family="Arial" font-size="14.00" fill="#c6c5fe">instrument/advice.mjs</text>
</g>
<!-- instrument/visit.mjs&#45;&gt;instrument/advice.mjs -->
<g id="edge8" class="edge">
<title>instrument/visit.mjs&#45;&gt;instrument/advice.mjs</title>
<path fill="none" stroke="#757575" d="M1335.73,-1151.1C1354.32,-1149.28 1374.58,-1147.31 1393.25,-1145.53 1458.43,-1139.31 1532.21,-1132.44 1587.48,-1127.32"/>
<polygon fill="#757575" stroke="#757575" points="1587.49,-1130.83 1597.12,-1126.43 1586.84,-1123.86 1587.49,-1130.83"/>
</g>
<!-- util/array.mjs -->
<g id="node6" class="node">
<title>util/array.mjs</title>
<path fill="none" stroke="#cfffac" d="M1916.71,-995.41C1916.71,-995.41 1840.04,-995.41 1840.04,-995.41 1836.08,-995.41 1832.12,-991.45 1832.12,-987.49 1832.12,-987.49 1832.12,-979.57 1832.12,-979.57 1832.12,-975.62 1836.08,-971.66 1840.04,-971.66 1840.04,-971.66 1916.71,-971.66 1916.71,-971.66 1920.67,-971.66 1924.62,-975.62 1924.62,-979.57 1924.62,-979.57 1924.62,-987.49 1924.62,-987.49 1924.62,-991.45 1920.67,-995.41 1916.71,-995.41"/>
<text text-anchor="middle" x="1878.38" y="-978.11" font-family="Arial" font-size="14.00" fill="#cfffac">util/array.mjs</text>
</g>
<!-- instrument/visit.mjs&#45;&gt;util/array.mjs -->
<g id="edge10" class="edge">
<title>instrument/visit.mjs&#45;&gt;util/array.mjs</title>
<path fill="none" stroke="#757575" d="M1333.77,-1145.26C1342.24,-1141.77 1350.36,-1137.29 1357.25,-1131.53 1384.4,-1108.84 1364.25,-1080.8 1393.25,-1060.53 1526.06,-967.73 1599.53,-1062.26 1755.25,-1017.53 1772.26,-1012.65 1774.44,-1006.07 1791.25,-1000.53 1800.61,-997.45 1810.74,-994.84 1820.65,-992.66"/>
<polygon fill="#757575" stroke="#757575" points="1821.12,-996.14 1830.21,-990.69 1819.71,-989.28 1821.12,-996.14"/>
</g>
<!-- instrument/helper.mjs -->
<g id="node8" class="node">
<title>instrument/helper.mjs</title>
<path fill="none" stroke="#c6c5fe" d="M1538.96,-1093.41C1538.96,-1093.41 1409.04,-1093.41 1409.04,-1093.41 1405.08,-1093.41 1401.12,-1089.45 1401.12,-1085.49 1401.12,-1085.49 1401.12,-1077.57 1401.12,-1077.57 1401.12,-1073.62 1405.08,-1069.66 1409.04,-1069.66 1409.04,-1069.66 1538.96,-1069.66 1538.96,-1069.66 1542.92,-1069.66 1546.88,-1073.62 1546.88,-1077.57 1546.88,-1077.57 1546.88,-1085.49 1546.88,-1085.49 1546.88,-1089.45 1542.92,-1093.41 1538.96,-1093.41"/>
<text text-anchor="middle" x="1474" y="-1076.11" font-family="Arial" font-size="14.00" fill="#c6c5fe">instrument/helper.mjs</text>
</g>
<!-- instrument/visit.mjs&#45;&gt;instrument/helper.mjs -->
<g id="edge9" class="edge">
<title>instrument/visit.mjs&#45;&gt;instrument/helper.mjs</title>
<path fill="none" stroke="#757575" d="M1320.94,-1145.16C1333.09,-1141.44 1345.85,-1136.89 1357.25,-1131.53 1374.65,-1123.35 1375.95,-1115.92 1393.25,-1107.53 1400.81,-1103.86 1409.02,-1100.53 1417.19,-1097.56"/>
<polygon fill="#757575" stroke="#757575" points="1418.12,-1100.94 1426.43,-1094.37 1415.84,-1094.33 1418.12,-1100.94"/>
</g>
<!-- instrument/advice.mjs&#45;&gt;advice.mjs -->
<g id="edge2" class="edge">
<title>instrument/advice.mjs&#45;&gt;advice.mjs</title>
<path fill="none" stroke="#757575" d="M1747.42,-1119.53C1773.63,-1119.53 1802.55,-1119.53 1826.45,-1119.53"/>
<polygon fill="#757575" stroke="#757575" points="1826.23,-1123.03 1836.23,-1119.53 1826.23,-1116.03 1826.23,-1123.03"/>
</g>
<!-- instrument/advice.mjs&#45;&gt;util/array.mjs -->
<g id="edge3" class="edge">
<title>instrument/advice.mjs&#45;&gt;util/array.mjs</title>
<path fill="none" stroke="#757575" d="M1731.45,-1107.24C1740,-1103.74 1748.27,-1099.26 1755.25,-1093.53 1780.77,-1072.58 1767.62,-1051.6 1791.25,-1028.53 1803.1,-1016.96 1818.53,-1007.65 1833.05,-1000.56"/>
<polygon fill="#757575" stroke="#757575" points="1834.4,-1003.79 1842.02,-996.43 1831.47,-997.44 1834.4,-1003.79"/>
</g>
<!-- util/record.mjs -->
<g id="node7" class="node">
<title>util/record.mjs</title>
<path fill="none" stroke="#cfffac" d="M2111.96,-561.41C2111.96,-561.41 2027.04,-561.41 2027.04,-561.41 2023.08,-561.41 2019.12,-557.45 2019.12,-553.49 2019.12,-553.49 2019.12,-545.57 2019.12,-545.57 2019.12,-541.62 2023.08,-537.66 2027.04,-537.66 2027.04,-537.66 2111.96,-537.66 2111.96,-537.66 2115.92,-537.66 2119.88,-541.62 2119.88,-545.57 2119.88,-545.57 2119.88,-553.49 2119.88,-553.49 2119.88,-557.45 2115.92,-561.41 2111.96,-561.41"/>
<text text-anchor="middle" x="2069.5" y="-544.11" font-family="Arial" font-size="14.00" fill="#cfffac">util/record.mjs</text>
</g>
<!-- instrument/advice.mjs&#45;&gt;util/record.mjs -->
<g id="edge4" class="edge">
<title>instrument/advice.mjs&#45;&gt;util/record.mjs</title>
<path fill="none" stroke="#757575" d="M1719.49,-1107.22C1792.86,-1086.48 1932.48,-1043.04 1965.5,-1004.53 2022.79,-937.72 2057.04,-656.39 2066.08,-572.95"/>
<polygon fill="#757575" stroke="#757575" points="2069.54,-573.54 2067.12,-563.23 2062.58,-572.8 2069.54,-573.54"/>
</g>
<!-- instrument/helper.mjs&#45;&gt;instrument/advice.mjs -->
<g id="edge5" class="edge">
<title>instrument/helper.mjs&#45;&gt;instrument/advice.mjs</title>
<path fill="none" stroke="#757575" d="M1538.96,-1093.87C1557.46,-1097.44 1577.83,-1101.37 1596.94,-1105.05"/>
<polygon fill="#757575" stroke="#757575" points="1596.06,-1108.45 1606.54,-1106.91 1597.38,-1101.57 1596.06,-1108.45"/>
</g>
<!-- instrument/helper.mjs&#45;&gt;util/array.mjs -->
<g id="edge6" class="edge">
<title>instrument/helper.mjs&#45;&gt;util/array.mjs</title>
<path fill="none" stroke="#757575" d="M1547.11,-1085.45C1605.21,-1086.14 1688,-1081.46 1755.25,-1055.53 1773.91,-1048.34 1774.33,-1039.2 1791.25,-1028.53 1807.17,-1018.5 1825.57,-1008.66 1841.27,-1000.76"/>
<polygon fill="#757575" stroke="#757575" points="1842.38,-1004.11 1849.78,-996.53 1839.27,-997.84 1842.38,-1004.11"/>
</g>
<!-- library/create.mjs -->
<g id="node9" class="node">
<title>library/create.mjs</title>
<path fill="none" stroke="#c6c5fe" d="M581.46,-649.41C581.46,-649.41 477.79,-649.41 477.79,-649.41 473.83,-649.41 469.88,-645.45 469.88,-641.49 469.88,-641.49 469.88,-633.57 469.88,-633.57 469.88,-629.62 473.83,-625.66 477.79,-625.66 477.79,-625.66 581.46,-625.66 581.46,-625.66 585.42,-625.66 589.38,-629.62 589.38,-633.57 589.38,-633.57 589.38,-641.49 589.38,-641.49 589.38,-645.45 585.42,-649.41 581.46,-649.41"/>
<text text-anchor="middle" x="529.62" y="-632.11" font-family="Arial" font-size="14.00" fill="#c6c5fe">library/create.mjs</text>
</g>
<!-- library/create.mjs&#45;&gt;util/array.mjs -->
<g id="edge15" class="edge">
<title>library/create.mjs&#45;&gt;util/array.mjs</title>
<path fill="none" stroke="#757575" d="M531.01,-649.74C533.15,-697.68 546.87,-875.56 634,-981.53 720.6,-1086.85 772.65,-1117.53 909,-1117.53 909,-1117.53 909,-1117.53 1082.62,-1117.53 1207.28,-1117.53 1250.28,-1124.54 1357.25,-1060.53 1378.64,-1047.73 1371.05,-1028.86 1393.25,-1017.53 1411.99,-1007.97 1696.39,-992.62 1820.34,-986.35"/>
<polygon fill="#757575" stroke="#757575" points="1820.5,-989.84 1830.31,-985.84 1820.15,-982.85 1820.5,-989.84"/>
</g>
<!-- runtime/domain.mjs -->
<g id="node10" class="node">
<title>runtime/domain.mjs</title>
<path fill="none" stroke="#cfffac" d="M2129.58,-239.41C2129.58,-239.41 2009.42,-239.41 2009.42,-239.41 2005.46,-239.41 2001.5,-235.45 2001.5,-231.49 2001.5,-231.49 2001.5,-223.57 2001.5,-223.57 2001.5,-219.62 2005.46,-215.66 2009.42,-215.66 2009.42,-215.66 2129.58,-215.66 2129.58,-215.66 2133.54,-215.66 2137.5,-219.62 2137.5,-223.57 2137.5,-223.57 2137.5,-231.49 2137.5,-231.49 2137.5,-235.45 2133.54,-239.41 2129.58,-239.41"/>
<text text-anchor="middle" x="2069.5" y="-222.11" font-family="Arial" font-size="14.00" fill="#cfffac">runtime/domain.mjs</text>
</g>
<!-- library/create.mjs&#45;&gt;runtime/domain.mjs -->
<g id="edge11" class="edge">
<title>library/create.mjs&#45;&gt;runtime/domain.mjs</title>
<path fill="none" stroke="#757575" d="M536.01,-625.38C571.28,-547.85 777.31,-125.53 1080.62,-125.53 1080.62,-125.53 1080.62,-125.53 1674,-125.53 1808.63,-125.53 1961.12,-181.91 2030.51,-210.83"/>
<polygon fill="#757575" stroke="#757575" points="2028.95,-213.97 2039.52,-214.64 2031.67,-207.53 2028.95,-213.97"/>
</g>
<!-- runtime/oracle/helper.mjs -->
<g id="node11" class="node">
<title>runtime/oracle/helper.mjs</title>
<path fill="none" stroke="#ff6c60" d="M794.33,-707.41C794.33,-707.41 641.92,-707.41 641.92,-707.41 637.96,-707.41 634,-703.45 634,-699.49 634,-699.49 634,-691.57 634,-691.57 634,-687.62 637.96,-683.66 641.92,-683.66 641.92,-683.66 794.33,-683.66 794.33,-683.66 798.29,-683.66 802.25,-687.62 802.25,-691.57 802.25,-691.57 802.25,-699.49 802.25,-699.49 802.25,-703.45 798.29,-707.41 794.33,-707.41"/>
<text text-anchor="middle" x="718.12" y="-690.11" font-family="Arial" font-size="14.00" fill="#ff6c60">runtime/oracle/helper.mjs</text>
</g>
<!-- library/create.mjs&#45;&gt;runtime/oracle/helper.mjs -->
<g id="edge12" class="edge">
<title>library/create.mjs&#45;&gt;runtime/oracle/helper.mjs</title>
<path fill="none" stroke="#757575" d="M570.18,-649.83C598.36,-658.6 636.48,-670.45 666.83,-679.89"/>
<polygon fill="#757575" stroke="#757575" points="665.6,-683.17 676.18,-682.8 667.68,-676.49 665.6,-683.17"/>
</g>
<!-- runtime/reflect.mjs -->
<g id="node12" class="node">
<title>runtime/reflect.mjs</title>
<path fill="none" stroke="#ff6c60" d="M965.96,-649.41C965.96,-649.41 854.04,-649.41 854.04,-649.41 850.08,-649.41 846.12,-645.45 846.12,-641.49 846.12,-641.49 846.12,-633.57 846.12,-633.57 846.12,-629.62 850.08,-625.66 854.04,-625.66 854.04,-625.66 965.96,-625.66 965.96,-625.66 969.92,-625.66 973.88,-629.62 973.88,-633.57 973.88,-633.57 973.88,-641.49 973.88,-641.49 973.88,-645.45 969.92,-649.41 965.96,-649.41"/>
<text text-anchor="middle" x="910" y="-632.11" font-family="Arial" font-size="14.00" fill="#ff6c60">runtime/reflect.mjs</text>
</g>
<!-- library/create.mjs&#45;&gt;runtime/reflect.mjs -->
<g id="edge13" class="edge">
<title>library/create.mjs&#45;&gt;runtime/reflect.mjs</title>
<path fill="none" stroke="#757575" d="M589.75,-637.53C655.84,-637.53 762.98,-637.53 834.69,-637.53"/>
<polygon fill="#757575" stroke="#757575" points="834.37,-641.03 844.37,-637.53 834.37,-634.03 834.37,-641.03"/>
</g>
<!-- runtime/region/wrap.mjs -->
<g id="node13" class="node">
<title>runtime/region/wrap.mjs</title>
<path fill="none" stroke="#ff6c60" d="M1546.83,-589.41C1546.83,-589.41 1401.17,-589.41 1401.17,-589.41 1397.21,-589.41 1393.25,-585.45 1393.25,-581.49 1393.25,-581.49 1393.25,-573.57 1393.25,-573.57 1393.25,-569.62 1397.21,-565.66 1401.17,-565.66 1401.17,-565.66 1546.83,-565.66 1546.83,-565.66 1550.79,-565.66 1554.75,-569.62 1554.75,-573.57 1554.75,-573.57 1554.75,-581.49 1554.75,-581.49 1554.75,-585.45 1550.79,-589.41 1546.83,-589.41"/>
<text text-anchor="middle" x="1474" y="-572.11" font-family="Arial" font-size="14.00" fill="#ff6c60">runtime/region/wrap.mjs</text>
</g>
<!-- library/create.mjs&#45;&gt;runtime/region/wrap.mjs -->
<g id="edge14" class="edge">
<title>library/create.mjs&#45;&gt;runtime/region/wrap.mjs</title>
<path fill="none" stroke="#757575" d="M555.8,-625.28C607.37,-600.84 729.35,-546.32 838.25,-522.53 1063.62,-473.31 1134.21,-458.68 1357.25,-517.53 1389.7,-526.1 1423.4,-544.87 1446.01,-559.15"/>
<polygon fill="#757575" stroke="#757575" points="1444,-562.03 1454.3,-564.52 1447.81,-556.15 1444,-562.03"/>
</g>
<!-- util/collection.mjs -->
<g id="node14" class="node">
<title>util/collection.mjs</title>
<path fill="none" stroke="#c6c5fe" d="M1525.46,-975.41C1525.46,-975.41 1422.54,-975.41 1422.54,-975.41 1418.58,-975.41 1414.62,-971.45 1414.62,-967.49 1414.62,-967.49 1414.62,-959.57 1414.62,-959.57 1414.62,-955.62 1418.58,-951.66 1422.54,-951.66 1422.54,-951.66 1525.46,-951.66 1525.46,-951.66 1529.42,-951.66 1533.38,-955.62 1533.38,-959.57 1533.38,-959.57 1533.38,-967.49 1533.38,-967.49 1533.38,-971.45 1529.42,-975.41 1525.46,-975.41"/>
<text text-anchor="middle" x="1474" y="-958.11" font-family="Arial" font-size="14.00" fill="#c6c5fe">util/collection.mjs</text>
</g>
<!-- library/create.mjs&#45;&gt;util/collection.mjs -->
<g id="edge16" class="edge">
<title>library/create.mjs&#45;&gt;util/collection.mjs</title>
<path fill="none" stroke="#757575" d="M534.21,-649.82C555.87,-721.2 676.17,-1079.53 909,-1079.53 909,-1079.53 909,-1079.53 1082.62,-1079.53 1207.75,-1079.53 1244.12,-1071 1357.25,-1017.53 1375.58,-1008.87 1375.35,-999.04 1393.25,-989.53 1400.16,-985.87 1407.67,-982.59 1415.24,-979.71"/>
<polygon fill="#757575" stroke="#757575" points="1416.25,-983.07 1424.49,-976.4 1413.9,-976.47 1416.25,-983.07"/>
</g>
<!-- runtime/oracle/helper.mjs&#45;&gt;error.mjs -->
<g id="edge39" class="edge">
<title>runtime/oracle/helper.mjs&#45;&gt;error.mjs</title>
<path fill="none" stroke="#757575" d="M725.06,-707.84C758.36,-775.26 929.5,-1100.84 1181.5,-1213.53 1300.1,-1266.57 1343.08,-1235.53 1473,-1235.53 1473,-1235.53 1473,-1235.53 1674,-1235.53 1804.24,-1235.53 1859.53,-1281.24 1965.5,-1205.53 2033.2,-1157.16 2057.54,-1052.99 2065.28,-1006.17"/>
<polygon fill="#757575" stroke="#757575" points="2068.74,-1006.73 2066.79,-996.32 2061.82,-1005.68 2068.74,-1006.73"/>
</g>
<!-- runtime/oracle/helper.mjs&#45;&gt;runtime/domain.mjs -->
<g id="edge40" class="edge">
<title>runtime/oracle/helper.mjs&#45;&gt;runtime/domain.mjs</title>
<path fill="none" stroke="#757575" d="M721.56,-683.32C737.5,-607.25 834.07,-201.53 1080.62,-201.53 1080.62,-201.53 1080.62,-201.53 1674,-201.53 1783.74,-201.53 1910.29,-211.67 1989.84,-219.29"/>
<polygon fill="#757575" stroke="#757575" points="1989.43,-222.77 1999.72,-220.25 1990.11,-215.8 1989.43,-222.77"/>
</g>
<!-- runtime/oracle/helper.mjs&#45;&gt;runtime/reflect.mjs -->
<g id="edge41" class="edge">
<title>runtime/oracle/helper.mjs&#45;&gt;runtime/reflect.mjs</title>
<path fill="none" stroke="#757575" d="M759.39,-683.23C788.09,-674.47 826.9,-662.61 857.8,-653.17"/>
<polygon fill="#757575" stroke="#757575" points="858.8,-656.53 867.34,-650.26 856.76,-649.83 858.8,-656.53"/>
</g>
<!-- runtime/oracle/helper.mjs&#45;&gt;runtime/region/wrap.mjs -->
<g id="edge42" class="edge">
<title>runtime/oracle/helper.mjs&#45;&gt;runtime/region/wrap.mjs</title>
<path fill="none" stroke="#757575" d="M727.27,-683.35C744.46,-658.75 787.14,-603.34 838.25,-578.53 1046.15,-477.61 1128.12,-516.38 1357.25,-546.53 1380.24,-549.56 1405.16,-555.83 1425.96,-561.94"/>
<polygon fill="#757575" stroke="#757575" points="1424.71,-565.22 1435.29,-564.76 1426.74,-558.52 1424.71,-565.22"/>
</g>
<!-- util/number.mjs -->
<g id="node27" class="node">
<title>util/number.mjs</title>
<path fill="none" stroke="#cfffac" d="M1520.21,-857.41C1520.21,-857.41 1427.79,-857.41 1427.79,-857.41 1423.83,-857.41 1419.88,-853.45 1419.88,-849.49 1419.88,-849.49 1419.88,-841.57 1419.88,-841.57 1419.88,-837.62 1423.83,-833.66 1427.79,-833.66 1427.79,-833.66 1520.21,-833.66 1520.21,-833.66 1524.17,-833.66 1528.12,-837.62 1528.12,-841.57 1528.12,-841.57 1528.12,-849.49 1528.12,-849.49 1528.12,-853.45 1524.17,-857.41 1520.21,-857.41"/>
<text text-anchor="middle" x="1474" y="-840.11" font-family="Arial" font-size="14.00" fill="#cfffac">util/number.mjs</text>
</g>
<!-- runtime/oracle/helper.mjs&#45;&gt;util/number.mjs -->
<g id="edge43" class="edge">
<title>runtime/oracle/helper.mjs&#45;&gt;util/number.mjs</title>
<path fill="none" stroke="#757575" d="M725.67,-707.63C741.25,-735.25 783.42,-803.22 838.25,-837.53 971.57,-920.96 1025.41,-904.28 1181.5,-923.53 1259.02,-933.1 1282.55,-946.35 1357.25,-923.53 1394.36,-912.2 1430.33,-884.52 1452.07,-865.39"/>
<polygon fill="#757575" stroke="#757575" points="1454.29,-868.1 1459.35,-858.8 1449.59,-862.91 1454.29,-868.1"/>
</g>
<!-- runtime/reflect.mjs&#45;&gt;error.mjs -->
<g id="edge55" class="edge">
<title>runtime/reflect.mjs&#45;&gt;error.mjs</title>
<path fill="none" stroke="#757575" d="M912.87,-649.8C919.35,-687.75 944.63,-803.83 1017.75,-855.53 1077.57,-897.83 1108.36,-870.3 1181.5,-874.53 1259.48,-879.04 1287.73,-910.14 1357.25,-874.53 1381.62,-862.05 1368.88,-837.02 1393.25,-824.53 1457.13,-791.81 1483.77,-813.86 1554.75,-824.53 1737.08,-851.94 1944.01,-931.16 2028.94,-965.89"/>
<polygon fill="#757575" stroke="#757575" points="2027.42,-969.05 2038,-969.62 2030.08,-962.57 2027.42,-969.05"/>
</g>
<!-- runtime/reflect.mjs&#45;&gt;util/array.mjs -->
<g id="edge60" class="edge">
<title>runtime/reflect.mjs&#45;&gt;util/array.mjs</title>
<path fill="none" stroke="#757575" d="M910.79,-649.65C910.69,-696.98 917.41,-870.28 1017.75,-941.53 1019.27,-942.61 1552.89,-942.42 1554.75,-942.53 1648.47,-947.98 1756.54,-963.64 1820.79,-973.96"/>
<polygon fill="#757575" stroke="#757575" points="1819.95,-977.37 1830.38,-975.51 1821.07,-970.46 1819.95,-977.37"/>
</g>
<!-- runtime/reflect.mjs&#45;&gt;util/record.mjs -->
<g id="edge61" class="edge">
<title>runtime/reflect.mjs&#45;&gt;util/record.mjs</title>
<path fill="none" stroke="#757575" d="M918.26,-625.43C945.96,-580.38 1050.14,-421.28 1181.5,-348.53 1296.98,-284.58 1340.99,-291.53 1473,-291.53 1473,-291.53 1473,-291.53 1674,-291.53 1846.84,-291.53 2003,-467.14 2052.36,-528.6"/>
<polygon fill="#757575" stroke="#757575" points="2049.47,-530.58 2058.42,-536.25 2054.96,-526.23 2049.47,-530.58"/>
</g>
<!-- runtime/reflect.mjs&#45;&gt;runtime/domain.mjs -->
<g id="edge56" class="edge">
<title>runtime/reflect.mjs&#45;&gt;runtime/domain.mjs</title>
<path fill="none" stroke="#757575" d="M912.72,-625.2C919.07,-583.91 944.73,-448.67 1017.75,-369.53 1159.35,-216.08 1264.2,-253.53 1473,-253.53 1473,-253.53 1473,-253.53 1674,-253.53 1783.74,-253.53 1910.29,-243.39 1989.84,-235.78"/>
<polygon fill="#757575" stroke="#757575" points="1990.11,-239.27 1999.72,-234.82 1989.43,-232.3 1990.11,-239.27"/>
</g>
<!-- runtime/reflect.mjs&#45;&gt;runtime/region/wrap.mjs -->
<g id="edge59" class="edge">
<title>runtime/reflect.mjs&#45;&gt;runtime/region/wrap.mjs</title>
<path fill="none" stroke="#757575" d="M938.22,-625.2C959.54,-615.88 990.12,-603.25 1017.75,-594.53 1162.55,-548.87 1206.03,-542.93 1357.25,-556.53 1372.88,-557.94 1389.56,-560.39 1405.25,-563.14"/>
<polygon fill="#757575" stroke="#757575" points="1404.51,-566.56 1414.97,-564.91 1405.76,-559.68 1404.51,-566.56"/>
</g>
<!-- runtime/oracle.mjs -->
<g id="node21" class="node">
<title>runtime/oracle.mjs</title>
<path fill="none" stroke="#ff6c60" d="M1137.58,-785.41C1137.58,-785.41 1025.67,-785.41 1025.67,-785.41 1021.71,-785.41 1017.75,-781.45 1017.75,-777.49 1017.75,-777.49 1017.75,-769.57 1017.75,-769.57 1017.75,-765.62 1021.71,-761.66 1025.67,-761.66 1025.67,-761.66 1137.58,-761.66 1137.58,-761.66 1141.54,-761.66 1145.5,-765.62 1145.5,-769.57 1145.5,-769.57 1145.5,-777.49 1145.5,-777.49 1145.5,-781.45 1141.54,-785.41 1137.58,-785.41"/>
<text text-anchor="middle" x="1081.62" y="-768.11" font-family="Arial" font-size="14.00" fill="#ff6c60">runtime/oracle.mjs</text>
</g>
<!-- runtime/reflect.mjs&#45;&gt;runtime/oracle.mjs -->
<g id="edge57" class="edge">
<title>runtime/reflect.mjs&#45;&gt;runtime/oracle.mjs</title>
<path fill="none" stroke="#757575" d="M926.35,-649.84C956,-673.61 1021.31,-725.98 1056.71,-754.35"/>
<polygon fill="#757575" stroke="#757575" points="1054.26,-756.88 1064.25,-760.4 1058.64,-751.42 1054.26,-756.88"/>
</g>
<!-- runtime/region/access.mjs -->
<g id="node28" class="node">
<title>runtime/region/access.mjs</title>
<path fill="none" stroke="#ff6c60" d="M1957.58,-483.41C1957.58,-483.41 1799.17,-483.41 1799.17,-483.41 1795.21,-483.41 1791.25,-479.45 1791.25,-475.49 1791.25,-475.49 1791.25,-467.57 1791.25,-467.57 1791.25,-463.62 1795.21,-459.66 1799.17,-459.66 1799.17,-459.66 1957.58,-459.66 1957.58,-459.66 1961.54,-459.66 1965.5,-463.62 1965.5,-467.57 1965.5,-467.57 1965.5,-475.49 1965.5,-475.49 1965.5,-479.45 1961.54,-483.41 1957.58,-483.41"/>
<text text-anchor="middle" x="1878.38" y="-466.11" font-family="Arial" font-size="14.00" fill="#ff6c60">runtime/region/access.mjs</text>
</g>
<!-- runtime/reflect.mjs&#45;&gt;runtime/region/access.mjs -->
<g id="edge58" class="edge">
<title>runtime/reflect.mjs&#45;&gt;runtime/region/access.mjs</title>
<path fill="none" stroke="#757575" d="M920.34,-625.2C959.49,-573.93 1111.52,-378.88 1181.5,-348.53 1421.74,-244.34 1745.13,-399.4 1846,-453.83"/>
<polygon fill="#757575" stroke="#757575" points="1844.08,-456.77 1854.53,-458.49 1847.43,-450.62 1844.08,-456.77"/>
</g>
<!-- runtime/region/wrap.mjs&#45;&gt;error.mjs -->
<g id="edge75" class="edge">
<title>runtime/region/wrap.mjs&#45;&gt;error.mjs</title>
<path fill="none" stroke="#757575" d="M1496.7,-589.83C1547.21,-618.12 1677.02,-688.96 1791.25,-735.53 1866.58,-766.24 1902.95,-739.53 1965.5,-791.53 2020.11,-836.93 2050.14,-919.03 2062.18,-959.17"/>
<polygon fill="#757575" stroke="#757575" points="2058.81,-960.09 2064.93,-968.73 2065.53,-958.16 2058.81,-960.09"/>
</g>
<!-- runtime/region/proxy.mjs -->
<g id="node30" class="node">
<title>runtime/region/proxy.mjs</title>
<path fill="none" stroke="#ff6c60" d="M1747.33,-557.41C1747.33,-557.41 1598.67,-557.41 1598.67,-557.41 1594.71,-557.41 1590.75,-553.45 1590.75,-549.49 1590.75,-549.49 1590.75,-541.57 1590.75,-541.57 1590.75,-537.62 1594.71,-533.66 1598.67,-533.66 1598.67,-533.66 1747.33,-533.66 1747.33,-533.66 1751.29,-533.66 1755.25,-537.62 1755.25,-541.57 1755.25,-541.57 1755.25,-549.49 1755.25,-549.49 1755.25,-553.45 1751.29,-557.41 1747.33,-557.41"/>
<text text-anchor="middle" x="1673" y="-540.11" font-family="Arial" font-size="14.00" fill="#ff6c60">runtime/region/proxy.mjs</text>
</g>
<!-- runtime/region/wrap.mjs&#45;&gt;runtime/region/proxy.mjs -->
<g id="edge76" class="edge">
<title>runtime/region/wrap.mjs&#45;&gt;runtime/region/proxy.mjs</title>
<path fill="none" stroke="#757575" d="M1516.3,-565.21C1534.73,-561.38 1557.26,-557.35 1579.39,-553.84"/>
<polygon fill="#757575" stroke="#757575" points="1579.71,-557.33 1589.05,-552.34 1578.63,-550.41 1579.71,-557.33"/>
</g>
<!-- util/collection.mjs&#45;&gt;util/array.mjs -->
<g id="edge89" class="edge">
<title>util/collection.mjs&#45;&gt;util/array.mjs</title>
<path fill="none" stroke="#757575" d="M1533.51,-966.44C1610.43,-970.26 1744.66,-976.94 1820.67,-980.71"/>
<polygon fill="#757575" stroke="#757575" points="1820.23,-984.2 1830.39,-981.2 1820.58,-977.2 1820.23,-984.2"/>
</g>
<!-- library/library&#45;variable.mjs -->
<g id="node15" class="node">
<title>library/library&#45;variable.mjs</title>
<path fill="none" stroke="#cfffac" d="M417.33,-1281.41C417.33,-1281.41 262.67,-1281.41 262.67,-1281.41 258.71,-1281.41 254.75,-1277.45 254.75,-1273.49 254.75,-1273.49 254.75,-1265.57 254.75,-1265.57 254.75,-1261.62 258.71,-1257.66 262.67,-1257.66 262.67,-1257.66 417.33,-1257.66 417.33,-1257.66 421.29,-1257.66 425.25,-1261.62 425.25,-1265.57 425.25,-1265.57 425.25,-1273.49 425.25,-1273.49 425.25,-1277.45 421.29,-1281.41 417.33,-1281.41"/>
<text text-anchor="middle" x="340" y="-1264.11" font-family="Arial" font-size="14.00" fill="#cfffac">library/library&#45;variable.mjs</text>
</g>
<!-- library/load.mjs -->
<g id="node16" class="node">
<title>library/load.mjs</title>
<path fill="none" stroke="#c6c5fe" d="M210.83,-1321.41C210.83,-1321.41 119.17,-1321.41 119.17,-1321.41 115.21,-1321.41 111.25,-1317.45 111.25,-1313.49 111.25,-1313.49 111.25,-1305.57 111.25,-1305.57 111.25,-1301.62 115.21,-1297.66 119.17,-1297.66 119.17,-1297.66 210.83,-1297.66 210.83,-1297.66 214.79,-1297.66 218.75,-1301.62 218.75,-1305.57 218.75,-1305.57 218.75,-1313.49 218.75,-1313.49 218.75,-1317.45 214.79,-1321.41 210.83,-1321.41"/>
<text text-anchor="middle" x="165" y="-1304.11" font-family="Arial" font-size="14.00" fill="#c6c5fe">library/load.mjs</text>
</g>
<!-- library/load.mjs&#45;&gt;error.mjs -->
<g id="edge17" class="edge">
<title>library/load.mjs&#45;&gt;error.mjs</title>
<path fill="none" stroke="#757575" d="M219.15,-1310.01C289.82,-1310.6 418.61,-1311.53 528.62,-1311.53 528.62,-1311.53 528.62,-1311.53 1674,-1311.53 1804.38,-1311.53 1863.65,-1359.94 1965.5,-1278.53 2052.03,-1209.36 2066.07,-1062.99 2068.2,-1005.96"/>
<polygon fill="#757575" stroke="#757575" points="2071.69,-1006.24 2068.46,-996.15 2064.69,-1006.05 2071.69,-1006.24"/>
</g>
<!-- library/load.mjs&#45;&gt;library/library&#45;variable.mjs -->
<g id="edge18" class="edge">
<title>library/load.mjs&#45;&gt;library/library&#45;variable.mjs</title>
<path fill="none" stroke="#757575" d="M218.85,-1297.31C236.37,-1293.26 256.08,-1288.7 274.4,-1284.47"/>
<polygon fill="#757575" stroke="#757575" points="275.15,-1287.89 284.11,-1282.22 273.58,-1281.07 275.15,-1287.89"/>
</g>
<!-- linvail.mjs -->
<g id="node17" class="node">
<title>linvail.mjs</title>
<path fill="none" stroke="#c6c5fe" d="M67.33,-1321.41C67.33,-1321.41 7.92,-1321.41 7.92,-1321.41 3.96,-1321.41 0,-1317.45 0,-1313.49 0,-1313.49 0,-1305.57 0,-1305.57 0,-1301.62 3.96,-1297.66 7.92,-1297.66 7.92,-1297.66 67.33,-1297.66 67.33,-1297.66 71.29,-1297.66 75.25,-1301.62 75.25,-1305.57 75.25,-1305.57 75.25,-1313.49 75.25,-1313.49 75.25,-1317.45 71.29,-1321.41 67.33,-1321.41"/>
<text text-anchor="middle" x="37.62" y="-1304.11" font-family="Arial" font-size="14.00" fill="#c6c5fe">linvail.mjs</text>
</g>
<!-- linvail.mjs&#45;&gt;instrument.mjs -->
<g id="edge19" class="edge">
<title>linvail.mjs&#45;&gt;instrument.mjs</title>
<path fill="none" stroke="#757575" d="M73.65,-1321.82C85.44,-1325.37 98.77,-1328.76 111.25,-1330.53 158.56,-1337.23 171.19,-1335.1 218.75,-1330.53 391.46,-1313.96 588.68,-1247.82 674.02,-1216.78"/>
<polygon fill="#757575" stroke="#757575" points="675.23,-1220.07 683.41,-1213.34 672.82,-1213.5 675.23,-1220.07"/>
</g>
<!-- linvail.mjs&#45;&gt;library/load.mjs -->
<g id="edge20" class="edge">
<title>linvail.mjs&#45;&gt;library/load.mjs</title>
<path fill="none" stroke="#757575" d="M75.56,-1309.53C83.21,-1309.53 91.48,-1309.53 99.78,-1309.53"/>
<polygon fill="#757575" stroke="#757575" points="99.55,-1313.03 109.55,-1309.53 99.55,-1306.03 99.55,-1313.03"/>
</g>
<!-- runtime.mjs -->
<g id="node18" class="node">
<title>runtime.mjs</title>
<path fill="none" stroke="#c6c5fe" d="M200.71,-1279.41C200.71,-1279.41 129.29,-1279.41 129.29,-1279.41 125.33,-1279.41 121.38,-1275.45 121.38,-1271.49 121.38,-1271.49 121.38,-1263.57 121.38,-1263.57 121.38,-1259.62 125.33,-1255.66 129.29,-1255.66 129.29,-1255.66 200.71,-1255.66 200.71,-1255.66 204.67,-1255.66 208.62,-1259.62 208.62,-1263.57 208.62,-1263.57 208.62,-1271.49 208.62,-1271.49 208.62,-1275.45 204.67,-1279.41 200.71,-1279.41"/>
<text text-anchor="middle" x="165" y="-1262.11" font-family="Arial" font-size="14.00" fill="#c6c5fe">runtime.mjs</text>
</g>
<!-- linvail.mjs&#45;&gt;runtime.mjs -->
<g id="edge21" class="edge">
<title>linvail.mjs&#45;&gt;runtime.mjs</title>
<path fill="none" stroke="#757575" d="M75.56,-1297.16C88.44,-1292.84 103.08,-1287.94 116.69,-1283.38"/>
<polygon fill="#757575" stroke="#757575" points="117.52,-1286.79 125.89,-1280.3 115.3,-1280.16 117.52,-1286.79"/>
</g>
<!-- runtime.mjs&#45;&gt;library/library&#45;variable.mjs -->
<g id="edge22" class="edge">
<title>runtime.mjs&#45;&gt;library/library&#45;variable.mjs</title>
<path fill="none" stroke="#757575" d="M208.76,-1268.03C219.41,-1268.15 231.26,-1268.29 243.35,-1268.43"/>
<polygon fill="#757575" stroke="#757575" points="242.94,-1271.92 252.98,-1268.54 243.02,-1264.92 242.94,-1271.92"/>
</g>
<!-- runtime/runtime.mjs -->
<g id="node19" class="node">
<title>runtime/runtime.mjs</title>
<path fill="none" stroke="#c6c5fe" d="M400.46,-273.41C400.46,-273.41 279.54,-273.41 279.54,-273.41 275.58,-273.41 271.62,-269.45 271.62,-265.49 271.62,-265.49 271.62,-257.57 271.62,-257.57 271.62,-253.62 275.58,-249.66 279.54,-249.66 279.54,-249.66 400.46,-249.66 400.46,-249.66 404.42,-249.66 408.38,-253.62 408.38,-257.57 408.38,-257.57 408.38,-265.49 408.38,-265.49 408.38,-269.45 404.42,-273.41 400.46,-273.41"/>
<text text-anchor="middle" x="340" y="-256.11" font-family="Arial" font-size="14.00" fill="#c6c5fe">runtime/runtime.mjs</text>
</g>
<!-- runtime.mjs&#45;&gt;runtime/runtime.mjs -->
<g id="edge23" class="edge">
<title>runtime.mjs&#45;&gt;runtime/runtime.mjs</title>
<path fill="none" stroke="#757575" d="M168.12,-1255.18C185.99,-1151.3 311.03,-424.17 335.02,-284.65"/>
<polygon fill="#757575" stroke="#757575" points="338.41,-285.6 336.66,-275.15 331.51,-284.41 338.41,-285.6"/>
</g>
<!-- runtime/runtime.mjs&#45;&gt;error.mjs -->
<g id="edge77" class="edge">
<title>runtime/runtime.mjs&#45;&gt;error.mjs</title>
<path fill="none" stroke="#757575" d="M342.69,-273.6C358.99,-387.78 492.67,-1273.53 717.12,-1273.53 717.12,-1273.53 717.12,-1273.53 1674,-1273.53 1804.33,-1273.53 1861.81,-1320.49 1965.5,-1241.53 2042.32,-1183.03 2061.96,-1058.37 2066.89,-1006.23"/>
<polygon fill="#757575" stroke="#757575" points="2070.37,-1006.65 2067.71,-996.4 2063.39,-1006.07 2070.37,-1006.65"/>
</g>
<!-- runtime/runtime.mjs&#45;&gt;library/create.mjs -->
<g id="edge78" class="edge">
<title>runtime/runtime.mjs&#45;&gt;library/create.mjs</title>
<path fill="none" stroke="#757575" d="M347.03,-273.62C373.82,-327.31 482.3,-544.7 517.52,-615.28"/>
<polygon fill="#757575" stroke="#757575" points="514.25,-616.56 521.85,-623.95 520.51,-613.44 514.25,-616.56"/>
</g>
<!-- runtime/runtime.mjs&#45;&gt;runtime/domain.mjs -->
<g id="edge79" class="edge">
<title>runtime/runtime.mjs&#45;&gt;runtime/domain.mjs</title>
<path fill="none" stroke="#757575" d="M343.63,-249.17C352.47,-210.9 384.98,-93.86 461.25,-41.53 555.85,23.37 602.4,-7.53 717.12,-7.53 717.12,-7.53 717.12,-7.53 1674,-7.53 1807.34,-7.53 1855.63,-2.97 1965.5,-78.53 2012.32,-110.73 2044.36,-171.71 2059.16,-204.8"/>
<polygon fill="#757575" stroke="#757575" points="2055.89,-206.06 2063.07,-213.86 2062.32,-203.29 2055.89,-206.06"/>
</g>
<!-- runtime/runtime.mjs&#45;&gt;runtime/reflect.mjs -->
<g id="edge82" class="edge">
<title>runtime/runtime.mjs&#45;&gt;runtime/reflect.mjs</title>
<path fill="none" stroke="#757575" d="M359.58,-273.83C442.76,-328.89 781.28,-552.98 881.14,-619.09"/>
<polygon fill="#757575" stroke="#757575" points="879.03,-621.89 889.3,-624.49 882.9,-616.06 879.03,-621.89"/>
</g>
<!-- runtime/runtime.mjs&#45;&gt;runtime/region/wrap.mjs -->
<g id="edge86" class="edge">
<title>runtime/runtime.mjs&#45;&gt;runtime/region/wrap.mjs</title>
<path fill="none" stroke="#757575" d="M408.69,-270.14C608.86,-296.5 1194.11,-380.28 1357.25,-478.53 1378.6,-491.39 1374.89,-504.67 1393.25,-521.53 1408.48,-535.52 1427.34,-548.92 1442.9,-559.1"/>
<polygon fill="#757575" stroke="#757575" points="1441,-562.03 1451.31,-564.48 1444.77,-556.14 1441,-562.03"/>
</g>
<!-- runtime/intrinsic.mjs -->
<g id="node20" class="node">
<title>runtime/intrinsic.mjs</title>
<path fill="none" stroke="#cfffac" d="M590.08,-253.41C590.08,-253.41 469.17,-253.41 469.17,-253.41 465.21,-253.41 461.25,-249.45 461.25,-245.49 461.25,-245.49 461.25,-237.57 461.25,-237.57 461.25,-233.62 465.21,-229.66 469.17,-229.66 469.17,-229.66 590.08,-229.66 590.08,-229.66 594.04,-229.66 598,-233.62 598,-237.57 598,-237.57 598,-245.49 598,-245.49 598,-249.45 594.04,-253.41 590.08,-253.41"/>
<text text-anchor="middle" x="529.62" y="-236.11" font-family="Arial" font-size="14.00" fill="#cfffac">runtime/intrinsic.mjs</text>
</g>
<!-- runtime/runtime.mjs&#45;&gt;runtime/intrinsic.mjs -->
<g id="edge80" class="edge">
<title>runtime/runtime.mjs&#45;&gt;runtime/intrinsic.mjs</title>
<path fill="none" stroke="#757575" d="M408.74,-254.31C422.02,-252.9 436.06,-251.4 449.68,-249.95"/>
<polygon fill="#757575" stroke="#757575" points="449.91,-253.44 459.48,-248.9 449.17,-246.48 449.91,-253.44"/>
</g>
<!-- runtime/runtime.mjs&#45;&gt;runtime/oracle.mjs -->
<g id="edge81" class="edge">
<title>runtime/runtime.mjs&#45;&gt;runtime/oracle.mjs</title>
<path fill="none" stroke="#757575" d="M340.9,-273.88C341.17,-327.58 349.4,-543.29 461.25,-658.53 605.62,-807.27 875.71,-798.81 1006.24,-784.38"/>
<polygon fill="#757575" stroke="#757575" points="1006.63,-787.86 1016.16,-783.24 1005.83,-780.91 1006.63,-787.86"/>
</g>
<!-- runtime/runtime.mjs&#45;&gt;runtime/region/access.mjs -->
<g id="edge83" class="edge">
<title>runtime/runtime.mjs&#45;&gt;runtime/region/access.mjs</title>
<path fill="none" stroke="#757575" d="M353.67,-249.43C374.55,-230.07 418.15,-192.06 461.25,-169.53 567.09,-114.22 597.71,-87.53 717.12,-87.53 717.12,-87.53 717.12,-87.53 1270.38,-87.53 1544.18,-87.53 1794.85,-370.03 1860.63,-450.42"/>
<polygon fill="#757575" stroke="#757575" points="1857.77,-452.44 1866.78,-458.01 1863.21,-448.04 1857.77,-452.44"/>
</g>
<!-- runtime/region/closure.mjs -->
<g id="node29" class="node">
<title>runtime/region/closure.mjs</title>
<path fill="none" stroke="#c6c5fe" d="M1349.33,-381.41C1349.33,-381.41 1189.42,-381.41 1189.42,-381.41 1185.46,-381.41 1181.5,-377.45 1181.5,-373.49 1181.5,-373.49 1181.5,-365.57 1181.5,-365.57 1181.5,-361.62 1185.46,-357.66 1189.42,-357.66 1189.42,-357.66 1349.33,-357.66 1349.33,-357.66 1353.29,-357.66 1357.25,-361.62 1357.25,-365.57 1357.25,-365.57 1357.25,-373.49 1357.25,-373.49 1357.25,-377.45 1353.29,-381.41 1349.33,-381.41"/>
<text text-anchor="middle" x="1269.38" y="-364.11" font-family="Arial" font-size="14.00" fill="#c6c5fe">runtime/region/closure.mjs</text>
</g>
<!-- runtime/runtime.mjs&#45;&gt;runtime/region/closure.mjs -->
<g id="edge84" class="edge">
<title>runtime/runtime.mjs&#45;&gt;runtime/region/closure.mjs</title>
<path fill="none" stroke="#757575" d="M368.51,-249.25C392.46,-239.27 428.39,-225.98 461.25,-220.53 521.21,-210.59 537.27,-218.15 598,-220.53 841.9,-230.1 920.22,-169.59 1145.5,-263.53 1190,-282.09 1229.92,-323.21 1251.49,-348.43"/>
<polygon fill="#757575" stroke="#757575" points="1248.77,-350.63 1257.86,-356.07 1254.15,-346.15 1248.77,-350.63"/>
</g>
<!-- runtime/runtime.mjs&#45;&gt;runtime/region/proxy.mjs -->
<g id="edge85" class="edge">
<title>runtime/runtime.mjs&#45;&gt;runtime/region/proxy.mjs</title>
<path fill="none" stroke="#757575" d="M366.24,-249.22C390.19,-237.97 427.45,-221.61 461.25,-211.53 572.13,-178.47 601.42,-163.53 717.12,-163.53 717.12,-163.53 717.12,-163.53 1270.38,-163.53 1480.17,-163.53 1623.91,-440.57 1661.95,-522.79"/>
<polygon fill="#757575" stroke="#757575" points="1658.76,-524.22 1666.08,-531.88 1665.13,-521.32 1658.76,-524.22"/>
</g>
<!-- runtime/standard.mjs -->
<g id="node31" class="node">
<title>runtime/standard.mjs</title>
<path fill="none" stroke="#c6c5fe" d="M973.83,-59.41C973.83,-59.41 846.17,-59.41 846.17,-59.41 842.21,-59.41 838.25,-55.45 838.25,-51.49 838.25,-51.49 838.25,-43.57 838.25,-43.57 838.25,-39.62 842.21,-35.66 846.17,-35.66 846.17,-35.66 973.83,-35.66 973.83,-35.66 977.79,-35.66 981.75,-39.62 981.75,-43.57 981.75,-43.57 981.75,-51.49 981.75,-51.49 981.75,-55.45 977.79,-59.41 973.83,-59.41"/>
<text text-anchor="middle" x="910" y="-42.11" font-family="Arial" font-size="14.00" fill="#c6c5fe">runtime/standard.mjs</text>
</g>
<!-- runtime/runtime.mjs&#45;&gt;runtime/standard.mjs -->
<g id="edge87" class="edge">
<title>runtime/runtime.mjs&#45;&gt;runtime/standard.mjs</title>
<path fill="none" stroke="#757575" d="M344.45,-249.49C355.1,-214.82 391.04,-114.66 461.25,-73.53 521.09,-38.48 714.44,-39.62 826.53,-43.56"/>
<polygon fill="#757575" stroke="#757575" points="826.15,-47.04 836.27,-43.91 826.41,-40.05 826.15,-47.04"/>
</g>
<!-- runtime/oracle.mjs&#45;&gt;error.mjs -->
<g id="edge24" class="edge">
<title>runtime/oracle.mjs&#45;&gt;error.mjs</title>
<path fill="none" stroke="#757575" d="M1083.68,-785.51C1089.37,-846.9 1118.44,-1125.61 1181.5,-1178.53 1280.95,-1261.99 1343.17,-1197.53 1473,-1197.53 1473,-1197.53 1473,-1197.53 1674,-1197.53 1804.07,-1197.53 1856.73,-1242.86 1965.5,-1171.53 2025.1,-1132.45 2053.06,-1046.7 2063.45,-1005.51"/>
<polygon fill="#757575" stroke="#757575" points="2066.81,-1006.49 2065.72,-995.95 2060,-1004.87 2066.81,-1006.49"/>
</g>
<!-- runtime/oracle.mjs&#45;&gt;util/record.mjs -->
<g id="edge30" class="edge">
<title>runtime/oracle.mjs&#45;&gt;util/record.mjs</title>
<path fill="none" stroke="#757575" d="M1145.91,-764.31C1292.21,-742.14 1664.34,-680.93 1965.5,-590.53 1987.64,-583.89 2011.67,-574.45 2030.95,-566.31"/>
<polygon fill="#757575" stroke="#757575" points="2032.22,-569.58 2040.03,-562.42 2029.46,-563.14 2032.22,-569.58"/>
</g>
<!-- runtime/oracle/aran.mjs -->
<g id="node22" class="node">
<title>runtime/oracle/aran.mjs</title>
<path fill="none" stroke="#ff6c60" d="M1340.71,-589.41C1340.71,-589.41 1198.04,-589.41 1198.04,-589.41 1194.08,-589.41 1190.12,-585.45 1190.12,-581.49 1190.12,-581.49 1190.12,-573.57 1190.12,-573.57 1190.12,-569.62 1194.08,-565.66 1198.04,-565.66 1198.04,-565.66 1340.71,-565.66 1340.71,-565.66 1344.67,-565.66 1348.62,-569.62 1348.62,-573.57 1348.62,-573.57 1348.62,-581.49 1348.62,-581.49 1348.62,-585.45 1344.67,-589.41 1340.71,-589.41"/>
<text text-anchor="middle" x="1269.38" y="-572.11" font-family="Arial" font-size="14.00" fill="#ff6c60">runtime/oracle/aran.mjs</text>
</g>
<!-- runtime/oracle.mjs&#45;&gt;runtime/oracle/aran.mjs -->
<g id="edge25" class="edge">
<title>runtime/oracle.mjs&#45;&gt;runtime/oracle/aran.mjs</title>
<path fill="none" stroke="#757575" d="M1085.77,-761.54C1094.79,-729.62 1123.86,-642.07 1181.5,-598.53 1183.07,-597.34 1184.71,-596.22 1186.39,-595.16"/>
<polygon fill="#757575" stroke="#757575" points="1187.99,-598.27 1195.14,-590.46 1184.68,-592.11 1187.99,-598.27"/>
</g>
<!-- runtime/oracle/array.mjs -->
<g id="node23" class="node">
<title>runtime/oracle/array.mjs</title>
<path fill="none" stroke="#ff6c60" d="M1342.21,-673.41C1342.21,-673.41 1196.54,-673.41 1196.54,-673.41 1192.58,-673.41 1188.62,-669.45 1188.62,-665.49 1188.62,-665.49 1188.62,-657.57 1188.62,-657.57 1188.62,-653.62 1192.58,-649.66 1196.54,-649.66 1196.54,-649.66 1342.21,-649.66 1342.21,-649.66 1346.17,-649.66 1350.12,-653.62 1350.12,-657.57 1350.12,-657.57 1350.12,-665.49 1350.12,-665.49 1350.12,-669.45 1346.17,-673.41 1342.21,-673.41"/>
<text text-anchor="middle" x="1269.38" y="-656.11" font-family="Arial" font-size="14.00" fill="#ff6c60">runtime/oracle/array.mjs</text>
</g>
<!-- runtime/oracle.mjs&#45;&gt;runtime/oracle/array.mjs -->
<g id="edge26" class="edge">
<title>runtime/oracle.mjs&#45;&gt;runtime/oracle/array.mjs</title>
<path fill="none" stroke="#757575" d="M1123.06,-761.3C1131.05,-757.69 1138.97,-753.16 1145.5,-747.53 1169.06,-727.23 1156.94,-706.61 1181.5,-687.53 1185.97,-684.06 1190.9,-681.05 1196.07,-678.44"/>
<polygon fill="#757575" stroke="#757575" points="1197.16,-681.79 1204.86,-674.52 1194.31,-675.39 1197.16,-681.79"/>
</g>
<!-- runtime/oracle/linvail.mjs -->
<g id="node24" class="node">
<title>runtime/oracle/linvail.mjs</title>
<path fill="none" stroke="#ff6c60" d="M1344.08,-865.41C1344.08,-865.41 1194.67,-865.41 1194.67,-865.41 1190.71,-865.41 1186.75,-861.45 1186.75,-857.49 1186.75,-857.49 1186.75,-849.57 1186.75,-849.57 1186.75,-845.62 1190.71,-841.66 1194.67,-841.66 1194.67,-841.66 1344.08,-841.66 1344.08,-841.66 1348.04,-841.66 1352,-845.62 1352,-849.57 1352,-849.57 1352,-857.49 1352,-857.49 1352,-861.45 1348.04,-865.41 1344.08,-865.41"/>
<text text-anchor="middle" x="1269.38" y="-848.11" font-family="Arial" font-size="14.00" fill="#ff6c60">runtime/oracle/linvail.mjs</text>
</g>
<!-- runtime/oracle.mjs&#45;&gt;runtime/oracle/linvail.mjs -->
<g id="edge27" class="edge">
<title>runtime/oracle.mjs&#45;&gt;runtime/oracle/linvail.mjs</title>
<path fill="none" stroke="#757575" d="M1099.65,-785.87C1118.72,-799.16 1150.96,-820.07 1181.5,-832.53 1186.36,-834.52 1191.46,-836.34 1196.64,-838.02"/>
<polygon fill="#757575" stroke="#757575" points="1195.31,-841.28 1205.9,-840.81 1197.34,-834.58 1195.31,-841.28"/>
</g>
<!-- runtime/oracle/object.mjs -->
<g id="node25" class="node">
<title>runtime/oracle/object.mjs</title>
<path fill="none" stroke="#ff6c60" d="M1345.21,-631.41C1345.21,-631.41 1193.54,-631.41 1193.54,-631.41 1189.58,-631.41 1185.62,-627.45 1185.62,-623.49 1185.62,-623.49 1185.62,-615.57 1185.62,-615.57 1185.62,-611.62 1189.58,-607.66 1193.54,-607.66 1193.54,-607.66 1345.21,-607.66 1345.21,-607.66 1349.17,-607.66 1353.12,-611.62 1353.12,-615.57 1353.12,-615.57 1353.12,-623.49 1353.12,-623.49 1353.12,-627.45 1349.17,-631.41 1345.21,-631.41"/>
<text text-anchor="middle" x="1269.38" y="-614.11" font-family="Arial" font-size="14.00" fill="#ff6c60">runtime/oracle/object.mjs</text>
</g>
<!-- runtime/oracle.mjs&#45;&gt;runtime/oracle/object.mjs -->
<g id="edge28" class="edge">
<title>runtime/oracle.mjs&#45;&gt;runtime/oracle/object.mjs</title>
<path fill="none" stroke="#757575" d="M1096.85,-761.33C1110.47,-749.15 1131.03,-729.44 1145.5,-709.53 1165.84,-681.56 1154.25,-661.84 1181.5,-640.53 1183.01,-639.35 1184.58,-638.23 1186.2,-637.18"/>
<polygon fill="#757575" stroke="#757575" points="1187.55,-640.43 1194.6,-632.52 1184.16,-634.31 1187.55,-640.43"/>
</g>
<!-- runtime/oracle/reflect.mjs -->
<g id="node26" class="node">
<title>runtime/oracle/reflect.mjs</title>
<path fill="none" stroke="#ff6c60" d="M1345.58,-823.41C1345.58,-823.41 1193.17,-823.41 1193.17,-823.41 1189.21,-823.41 1185.25,-819.45 1185.25,-815.49 1185.25,-815.49 1185.25,-807.57 1185.25,-807.57 1185.25,-803.62 1189.21,-799.66 1193.17,-799.66 1193.17,-799.66 1345.58,-799.66 1345.58,-799.66 1349.54,-799.66 1353.5,-803.62 1353.5,-807.57 1353.5,-807.57 1353.5,-815.49 1353.5,-815.49 1353.5,-819.45 1349.54,-823.41 1345.58,-823.41"/>
<text text-anchor="middle" x="1269.38" y="-806.11" font-family="Arial" font-size="14.00" fill="#ff6c60">runtime/oracle/reflect.mjs</text>
</g>
<!-- runtime/oracle.mjs&#45;&gt;runtime/oracle/reflect.mjs -->
<g id="edge29" class="edge">
<title>runtime/oracle.mjs&#45;&gt;runtime/oracle/reflect.mjs</title>
<path fill="none" stroke="#757575" d="M1142.93,-785.87C1160.13,-789.39 1179.04,-793.26 1196.84,-796.9"/>
<polygon fill="#757575" stroke="#757575" points="1196.07,-800.31 1206.57,-798.89 1197.47,-793.46 1196.07,-800.31"/>
</g>
<!-- runtime/oracle/aran.mjs&#45;&gt;runtime/oracle/helper.mjs -->
<g id="edge31" class="edge">
<title>runtime/oracle/aran.mjs&#45;&gt;runtime/oracle/helper.mjs</title>
<path fill="none" stroke="#757575" d="M1189.96,-572.63C1101.64,-569.8 955.19,-573.35 838.25,-616.53 801.22,-630.21 764.21,-657.39 741.5,-676.02"/>
<polygon fill="#757575" stroke="#757575" points="739.54,-673.09 734.12,-682.2 744.03,-678.46 739.54,-673.09"/>
</g>
<!-- runtime/oracle/aran.mjs&#45;&gt;runtime/reflect.mjs -->
<g id="edge32" class="edge">
<title>runtime/oracle/aran.mjs&#45;&gt;runtime/reflect.mjs</title>
<path fill="none" stroke="#757575" d="M1194.83,-589.88C1133.57,-600.17 1046.7,-614.75 985.24,-625.07"/>
<polygon fill="#757575" stroke="#757575" points="984.84,-621.59 975.56,-626.69 986,-628.49 984.84,-621.59"/>
</g>
<!-- runtime/oracle/aran.mjs&#45;&gt;runtime/region/wrap.mjs -->
<g id="edge33" class="edge">
<title>runtime/oracle/aran.mjs&#45;&gt;runtime/region/wrap.mjs</title>
<path fill="none" stroke="#757575" d="M1349.01,-577.53C1359.74,-577.53 1370.83,-577.53 1381.76,-577.53"/>
<polygon fill="#757575" stroke="#757575" points="1381.56,-581.03 1391.56,-577.53 1381.56,-574.03 1381.56,-581.03"/>
</g>
<!-- runtime/oracle/array.mjs&#45;&gt;util/record.mjs -->
<g id="edge38" class="edge">
<title>runtime/oracle/array.mjs&#45;&gt;util/record.mjs</title>
<path fill="none" stroke="#757575" d="M1350.56,-650.28C1510.47,-627.84 1865.89,-577.96 2008.04,-558.02"/>
<polygon fill="#757575" stroke="#757575" points="2008.19,-561.53 2017.61,-556.67 2007.22,-554.6 2008.19,-561.53"/>
</g>
<!-- runtime/oracle/array.mjs&#45;&gt;runtime/oracle/helper.mjs -->
<g id="edge34" class="edge">
<title>runtime/oracle/array.mjs&#45;&gt;runtime/oracle/helper.mjs</title>
<path fill="none" stroke="#757575" d="M1219.32,-673.81C1206.76,-677.6 1193.43,-682.21 1181.5,-687.53 1164.38,-695.17 1163.55,-704.45 1145.5,-709.53 1022.17,-744.23 870.83,-725.65 785.65,-709.94"/>
<polygon fill="#757575" stroke="#757575" points="786.55,-706.55 776.07,-708.13 785.25,-713.43 786.55,-706.55"/>
</g>
<!-- runtime/oracle/array.mjs&#45;&gt;runtime/reflect.mjs -->
<g id="edge35" class="edge">
<title>runtime/oracle/array.mjs&#45;&gt;runtime/reflect.mjs</title>
<path fill="none" stroke="#757575" d="M1188.41,-656.16C1127.6,-652.08 1044.58,-646.5 985.23,-642.52"/>
<polygon fill="#757575" stroke="#757575" points="985.79,-639.05 975.58,-641.87 985.32,-646.03 985.79,-639.05"/>
</g>
<!-- runtime/oracle/array.mjs&#45;&gt;runtime/region/wrap.mjs -->
<g id="edge36" class="edge">
<title>runtime/oracle/array.mjs&#45;&gt;runtime/region/wrap.mjs</title>
<path fill="none" stroke="#757575" d="M1330.36,-649.21C1339.49,-646.71 1348.71,-643.82 1357.25,-640.53 1388.35,-628.55 1421.54,-609.8 1444.37,-595.87"/>
<polygon fill="#757575" stroke="#757575" points="1446.14,-598.89 1452.8,-590.65 1442.45,-592.94 1446.14,-598.89"/>
</g>
<!-- runtime/oracle/array.mjs&#45;&gt;util/number.mjs -->
<g id="edge37" class="edge">
<title>runtime/oracle/array.mjs&#45;&gt;util/number.mjs</title>
<path fill="none" stroke="#757575" d="M1283.98,-673.89C1318.37,-705.12 1409,-787.42 1451.03,-825.58"/>
<polygon fill="#757575" stroke="#757575" points="1448.57,-828.08 1458.33,-832.21 1453.28,-822.9 1448.57,-828.08"/>
</g>
<!-- runtime/oracle/linvail.mjs&#45;&gt;runtime/oracle/helper.mjs -->
<g id="edge44" class="edge">
<title>runtime/oracle/linvail.mjs&#45;&gt;runtime/oracle/helper.mjs</title>
<path fill="none" stroke="#757575" d="M1186.25,-859.92C1095.92,-863.36 948.89,-858.18 838.25,-801.53 796.52,-780.16 757.86,-740.68 736.48,-716.39"/>
<polygon fill="#757575" stroke="#757575" points="739.33,-714.34 730.15,-709.05 734.03,-718.91 739.33,-714.34"/>
</g>
<!-- runtime/oracle/linvail.mjs&#45;&gt;runtime/reflect.mjs -->
<g id="edge45" class="edge">
<title>runtime/oracle/linvail.mjs&#45;&gt;runtime/reflect.mjs</title>
<path fill="none" stroke="#757575" d="M1186.4,-861.64C1134.09,-862.73 1067.09,-856.17 1017.75,-823.53 958.81,-784.54 928.59,-701.11 916.9,-660.58"/>
<polygon fill="#757575" stroke="#757575" points="920.33,-659.87 914.31,-651.16 913.58,-661.73 920.33,-659.87"/>
</g>
<!-- runtime/oracle/linvail.mjs&#45;&gt;runtime/region/wrap.mjs -->
<g id="edge46" class="edge">
<title>runtime/oracle/linvail.mjs&#45;&gt;runtime/region/wrap.mjs</title>
<path fill="none" stroke="#757575" d="M1343.46,-841.34C1348.4,-838.9 1353.06,-835.99 1357.25,-832.53 1395.55,-800.86 1446.51,-657.12 1465.47,-600.53"/>
<polygon fill="#757575" stroke="#757575" points="1468.71,-601.88 1468.54,-591.28 1462.07,-599.67 1468.71,-601.88"/>
</g>
<!-- runtime/oracle/linvail.mjs&#45;&gt;util/collection.mjs -->
<g id="edge47" class="edge">
<title>runtime/oracle/linvail.mjs&#45;&gt;util/collection.mjs</title>
<path fill="none" stroke="#757575" d="M1292.83,-865.72C1328.66,-885.18 1398.93,-923.32 1440.33,-945.8"/>
<polygon fill="#757575" stroke="#757575" points="1438.65,-948.87 1449.11,-950.56 1441.99,-942.72 1438.65,-948.87"/>
</g>
<!-- runtime/oracle/object.mjs&#45;&gt;runtime/oracle/helper.mjs -->
<g id="edge48" class="edge">
<title>runtime/oracle/object.mjs&#45;&gt;runtime/oracle/helper.mjs</title>
<path fill="none" stroke="#757575" d="M1206.62,-631.86C1187.11,-635.55 1165.44,-639.43 1145.5,-642.53 1031.93,-660.2 900.61,-675.8 814.05,-685.42"/>
<polygon fill="#757575" stroke="#757575" points="813.73,-681.94 804.17,-686.51 814.5,-688.89 813.73,-681.94"/>
</g>
<!-- runtime/oracle/object.mjs&#45;&gt;runtime/reflect.mjs -->
<g id="edge49" class="edge">
<title>runtime/oracle/object.mjs&#45;&gt;runtime/reflect.mjs</title>
<path fill="none" stroke="#757575" d="M1185.13,-623.73C1124.7,-626.77 1043.68,-630.85 985.41,-633.78"/>
<polygon fill="#757575" stroke="#757575" points="985.39,-630.28 975.58,-634.28 985.74,-637.27 985.39,-630.28"/>
</g>
<!-- runtime/oracle/object.mjs&#45;&gt;runtime/region/wrap.mjs -->
<g id="edge50" class="edge">
<title>runtime/oracle/object.mjs&#45;&gt;runtime/region/wrap.mjs</title>
<path fill="none" stroke="#757575" d="M1330.07,-607.16C1352.75,-602.46 1378.79,-597.06 1402.38,-592.17"/>
<polygon fill="#757575" stroke="#757575" points="1402.82,-595.65 1411.9,-590.2 1401.39,-588.8 1402.82,-595.65"/>
</g>
<!-- runtime/oracle/reflect.mjs&#45;&gt;util/array.mjs -->
<g id="edge54" class="edge">
<title>runtime/oracle/reflect.mjs&#45;&gt;util/array.mjs</title>
<path fill="none" stroke="#757575" d="M1337.18,-823.87C1344.15,-826.27 1350.98,-829.13 1357.25,-832.53 1376.6,-843.03 1373.32,-857.21 1393.25,-866.53 1540.01,-935.18 1602.05,-856.8 1755.25,-909.53 1792.13,-922.23 1829.8,-947.27 1853.37,-964.68"/>
<polygon fill="#757575" stroke="#757575" points="1850.96,-967.25 1861.06,-970.48 1855.18,-961.67 1850.96,-967.25"/>
</g>
<!-- runtime/oracle/reflect.mjs&#45;&gt;runtime/oracle/helper.mjs -->
<g id="edge51" class="edge">
<title>runtime/oracle/reflect.mjs&#45;&gt;runtime/oracle/helper.mjs</title>
<path fill="none" stroke="#757575" d="M1200.12,-823.88C1149.32,-830.88 1078.56,-836.01 1017.75,-823.53 913.89,-802.21 801.55,-743.19 749.18,-713.33"/>
<polygon fill="#757575" stroke="#757575" points="751.25,-710.48 740.84,-708.52 747.75,-716.55 751.25,-710.48"/>
</g>
<!-- runtime/oracle/reflect.mjs&#45;&gt;runtime/reflect.mjs -->
<g id="edge52" class="edge">
<title>runtime/oracle/reflect.mjs&#45;&gt;runtime/reflect.mjs</title>
<path fill="none" stroke="#757575" d="M1184.96,-823.53C1133.5,-826.84 1067.97,-823.33 1017.75,-794.53 964.86,-764.2 932.67,-695.73 918.88,-660.07"/>
<polygon fill="#757575" stroke="#757575" points="922.33,-659.32 915.57,-651.16 915.77,-661.75 922.33,-659.32"/>
</g>
<!-- runtime/oracle/reflect.mjs&#45;&gt;runtime/region/wrap.mjs -->
<g id="edge53" class="edge">
<title>runtime/oracle/reflect.mjs&#45;&gt;runtime/region/wrap.mjs</title>
<path fill="none" stroke="#757575" d="M1280.98,-799.28C1313.81,-761.37 1413.98,-645.69 1455.1,-598.21"/>
<polygon fill="#757575" stroke="#757575" points="1457.61,-600.66 1461.51,-590.81 1452.31,-596.08 1457.61,-600.66"/>
</g>
<!-- runtime/region/access.mjs&#45;&gt;error.mjs -->
<g id="edge62" class="edge">
<title>runtime/region/access.mjs&#45;&gt;error.mjs</title>
<path fill="none" stroke="#757575" d="M1892.26,-483.62C1911.15,-502.07 1946.23,-539.18 1965.5,-577.53 2033.15,-712.15 2058.82,-894.85 2066.11,-959.06"/>
<polygon fill="#757575" stroke="#757575" points="2062.6,-959.2 2067.16,-968.77 2069.56,-958.45 2062.6,-959.2"/>
</g>
<!-- runtime/region/access.mjs&#45;&gt;util/record.mjs -->
<g id="edge65" class="edge">
<title>runtime/region/access.mjs&#45;&gt;util/record.mjs</title>
<path fill="none" stroke="#757575" d="M1909.34,-483.89C1941.44,-497.13 1992.54,-518.21 2028.16,-532.89"/>
<polygon fill="#757575" stroke="#757575" points="2026.69,-536.08 2037.27,-536.65 2029.36,-529.61 2026.69,-536.08"/>
</g>
<!-- runtime/region/access.mjs&#45;&gt;runtime/domain.mjs -->
<g id="edge63" class="edge">
<title>runtime/region/access.mjs&#45;&gt;runtime/domain.mjs</title>
<path fill="none" stroke="#757575" d="M1888.75,-459.43C1918.94,-420.49 2013.84,-298.05 2052.19,-248.58"/>
<polygon fill="#757575" stroke="#757575" points="2054.78,-250.95 2058.14,-240.9 2049.24,-246.66 2054.78,-250.95"/>
</g>
<!-- runtime/region/access.mjs&#45;&gt;runtime/region/wrap.mjs -->
<g id="edge64" class="edge">
<title>runtime/region/access.mjs&#45;&gt;runtime/region/wrap.mjs</title>
<path fill="none" stroke="#757575" d="M1791.06,-481.83C1733.45,-490.08 1656.49,-503.75 1590.75,-524.53 1561.64,-533.73 1530.25,-548.43 1507.51,-560.02"/>
<polygon fill="#757575" stroke="#757575" points="1506.01,-556.85 1498.74,-564.56 1509.23,-563.07 1506.01,-556.85"/>
</g>
<!-- runtime/region/closure.mjs&#45;&gt;error.mjs -->
<g id="edge66" class="edge">
<title>runtime/region/closure.mjs&#45;&gt;error.mjs</title>
<path fill="none" stroke="#757575" d="M1333.19,-381.77C1341.85,-385.27 1350.17,-389.76 1357.25,-395.53 1383.44,-416.9 1369.25,-438.73 1393.25,-462.53 1456.76,-525.52 1675.93,-597.18 1755.25,-638.53 1771.88,-647.2 1774.6,-651.92 1791.25,-660.53 1866.13,-699.28 1906.22,-675.58 1965.5,-735.53 2029.66,-800.42 2056,-911.13 2064.78,-959.16"/>
<polygon fill="#757575" stroke="#757575" points="2061.28,-959.45 2066.43,-968.71 2068.18,-958.26 2061.28,-959.45"/>
</g>
<!-- runtime/region/closure.mjs&#45;&gt;runtime/region/wrap.mjs -->
<g id="edge68" class="edge">
<title>runtime/region/closure.mjs&#45;&gt;runtime/region/wrap.mjs</title>
<path fill="none" stroke="#757575" d="M1338.14,-381.79C1345.27,-385.3 1351.86,-389.79 1357.25,-395.53 1405.93,-447.43 1345.21,-499.04 1393.25,-551.53 1395.99,-554.52 1399.07,-557.17 1402.4,-559.52"/>
<polygon fill="#757575" stroke="#757575" points="1400.62,-562.53 1411.01,-564.58 1404.17,-556.49 1400.62,-562.53"/>
</g>
<!-- runtime/region/closure.mjs&#45;&gt;runtime/region/proxy.mjs -->
<g id="edge67" class="edge">
<title>runtime/region/closure.mjs&#45;&gt;runtime/region/proxy.mjs</title>
<path fill="none" stroke="#757575" d="M1316.36,-381.86C1329.69,-385.82 1344.18,-390.49 1357.25,-395.53 1463.11,-436.32 1582.67,-497.78 1639.13,-527.79"/>
<polygon fill="#757575" stroke="#757575" points="1637.43,-530.85 1647.9,-532.47 1640.73,-524.67 1637.43,-530.85"/>
</g>
<!-- runtime/region/proxy.mjs&#45;&gt;error.mjs -->
<g id="edge69" class="edge">
<title>runtime/region/proxy.mjs&#45;&gt;error.mjs</title>
<path fill="none" stroke="#757575" d="M1716.96,-557.9C1780.64,-578.45 1899.63,-625.66 1965.5,-707.53 2028.84,-786.26 2055.84,-907.93 2064.81,-958.85"/>
<polygon fill="#757575" stroke="#757575" points="2061.35,-959.42 2066.46,-968.71 2068.26,-958.27 2061.35,-959.42"/>
</g>
<!-- runtime/region/proxy.mjs&#45;&gt;util/array.mjs -->
<g id="edge73" class="edge">
<title>runtime/region/proxy.mjs&#45;&gt;util/array.mjs</title>
<path fill="none" stroke="#757575" d="M1679.65,-557.7C1707.47,-617.62 1830.02,-881.54 1866.86,-960.89"/>
<polygon fill="#757575" stroke="#757575" points="1863.63,-962.24 1871.02,-969.84 1869.98,-959.3 1863.63,-962.24"/>
</g>
<!-- runtime/region/proxy.mjs&#45;&gt;util/record.mjs -->
<g id="edge74" class="edge">
<title>runtime/region/proxy.mjs&#45;&gt;util/record.mjs</title>
<path fill="none" stroke="#757575" d="M1755.74,-546.36C1830.62,-547.12 1939.8,-548.23 2007.38,-548.91"/>
<polygon fill="#757575" stroke="#757575" points="2007.12,-552.41 2017.16,-549.01 2007.19,-545.41 2007.12,-552.41"/>
</g>
<!-- runtime/region/proxy.mjs&#45;&gt;runtime/domain.mjs -->
<g id="edge70" class="edge">
<title>runtime/region/proxy.mjs&#45;&gt;runtime/domain.mjs</title>
<path fill="none" stroke="#757575" d="M1755.67,-539.55C1830.47,-532.52 1934.16,-518.4 1965.5,-492.53 2041.64,-429.69 2061.68,-303.29 2066.8,-251"/>
<polygon fill="#757575" stroke="#757575" points="2070.28,-251.43 2067.66,-241.16 2063.3,-250.82 2070.28,-251.43"/>
</g>
<!-- runtime/region/proxy.mjs&#45;&gt;runtime/region/wrap.mjs -->
<g id="edge72" class="edge">
<title>runtime/region/proxy.mjs&#45;&gt;runtime/region/wrap.mjs</title>
<path fill="none" stroke="#757575" d="M1630.55,-557.89C1611.82,-561.77 1588.88,-565.87 1566.44,-569.41"/>
<polygon fill="#757575" stroke="#757575" points="1565.97,-565.94 1556.62,-570.93 1567.04,-572.86 1565.97,-565.94"/>
</g>
<!-- runtime/region/proxy.mjs&#45;&gt;runtime/region/access.mjs -->
<g id="edge71" class="edge">
<title>runtime/region/proxy.mjs&#45;&gt;runtime/region/access.mjs</title>
<path fill="none" stroke="#757575" d="M1701.67,-533.33C1725.24,-523.15 1760.15,-508.56 1791.25,-497.53 1801.41,-493.93 1812.35,-490.38 1822.92,-487.11"/>
<polygon fill="#757575" stroke="#757575" points="1823.74,-490.52 1832.29,-484.27 1821.71,-483.82 1823.74,-490.52"/>
</g>
<!-- runtime/standard.mjs&#45;&gt;util/record.mjs -->
<g id="edge88" class="edge">
<title>runtime/standard.mjs&#45;&gt;util/record.mjs</title>
<path fill="none" stroke="#757575" d="M982.2,-47.85C1054.32,-48.14 1169.1,-48.53 1268.38,-48.53 1268.38,-48.53 1268.38,-48.53 1674,-48.53 1920.84,-48.53 2036.96,-428.57 2062.82,-526.66"/>
<polygon fill="#757575" stroke="#757575" points="2059.39,-527.36 2065.27,-536.18 2066.17,-525.62 2059.39,-527.36"/>
</g>
</g>
</svg>
